<?xml version="1.0" encoding="utf-8"?>
<!-- Generator: Adobe Illustrator 21.0.2, SVG Export Plug-In . SVG Version: 6.00 Build 0)  -->
<svg version="1.1" id="Layer_1" xmlns="http://www.w3.org/2000/svg" xmlns:xlink="http://www.w3.org/1999/xlink" x="0px" y="0px"
	 viewBox="0 0 72.7 23.8" style="enable-background:new 0 0 72.7 23.8;" xml:space="preserve">
<path d="M60.4,23.8c-0.3,0-0.5-0.1-0.7-0.3c-0.4-0.4-0.4-1,0-1.4l10.2-10.2L59.7,1.7c-0.4-0.4-0.4-1,0-1.4s1-0.4,1.4,0l11.6,11.6
	L61.1,23.5C60.9,23.7,60.7,23.8,60.4,23.8z"/>
<path d="M70.7,12.9H1c-0.6,0-1-0.4-1-1s0.4-1,1-1h69.7c0.6,0,1,0.4,1,1S71.3,12.9,70.7,12.9z"/>
</svg>
