<?xml version="1.0" encoding="UTF-8"?><!DOCTYPE svg PUBLIC "-//W3C//DTD SVG 1.1//EN" "http://www.w3.org/Graphics/SVG/1.1/DTD/svg11.dtd"><svg xmlns="http://www.w3.org/2000/svg"><symbol id="icon-facebook" viewBox="0 0 10 19">
    <title>
        facebook
    </title>
    <path d="M9.766.157v2.946H8.014c-.64 0-1.071.134-1.295.402-.223.268-.335.67-.335 1.205v2.11h3.27l-.435 3.303H6.384v8.471H2.97v-8.47H.123V6.82H2.97V4.387c0-1.384.387-2.457 1.161-3.22C4.904.404 5.934.023 7.222.023c1.093 0 1.941.045 2.544.134z" fill-rule="evenodd"/>
</symbol><symbol id="icon-pf-arrow" viewBox="0 0 72.7 23.8">
    <path d="M60.4 23.8c-.3 0-.5-.1-.7-.3-.4-.4-.4-1 0-1.4l10.2-10.2L59.7 1.7c-.4-.4-.4-1 0-1.4s1-.4 1.4 0l11.6 11.6-11.6 11.6c-.2.2-.4.3-.7.3z"/>
    <path d="M70.7 12.9H1c-.6 0-1-.4-1-1s.4-1 1-1h69.7c.6 0 1 .4 1 1s-.4 1-1 1z"/>
</symbol></svg>