<?xml version="1.0" encoding="utf-8"?>
<!-- Generator: Adobe Illustrator 15.0.0, SVG Export Plug-In . SVG Version: 6.00 Build 0)  -->
<!DOCTYPE svg PUBLIC "-//W3C//DTD SVG 1.1//EN" "http://www.w3.org/Graphics/SVG/1.1/DTD/svg11.dtd">
<svg version="1.1" id="Шар_1" xmlns="http://www.w3.org/2000/svg" xmlns:xlink="http://www.w3.org/1999/xlink" x="0px" y="0px"
	 width="356.544px" height="100.844px" viewBox="0 0 356.544 100.844" enable-background="new 0 0 356.544 100.844"
	 xml:space="preserve">
<polygon fill-rule="evenodd" clip-rule="evenodd" fill="#009D76" points="356.544,58.795 0,58.795 0,61.202 356.544,61.202 
	356.544,58.795 "/>
<path d="M29.227,96.649c-0.492,1.322-1.294,2.354-2.41,3.09c-1.115,0.737-2.476,1.105-4.082,1.105c-1.172,0-2.197-0.198-3.076-0.596
	c-0.879-0.396-1.616-0.926-2.207-1.587c-0.59-0.661-1.03-1.437-1.318-2.324c-0.289-0.888-0.43-1.823-0.43-2.807v-5.442
	c0-0.964,0.142-1.885,0.43-2.764c0.288-0.879,0.728-1.654,1.318-2.324c0.591-0.672,1.328-1.205,2.207-1.602
	c0.879-0.397,1.904-0.596,3.076-0.596c1.606,0,2.958,0.377,4.054,1.133c1.096,0.757,1.899,1.768,2.41,3.033l-2.325,1.049
	c-0.321-0.85-0.832-1.53-1.531-2.041c-0.7-0.51-1.559-0.765-2.58-0.765c-0.775,0-1.446,0.142-2.013,0.425s-1.039,0.657-1.417,1.12
	c-0.378,0.464-0.662,0.997-0.851,1.602s-0.283,1.22-0.283,1.843v5.131c0,0.662,0.094,1.299,0.283,1.913s0.473,1.157,0.851,1.63
	c0.378,0.473,0.85,0.855,1.417,1.148s1.238,0.439,2.013,0.439c1.021,0,1.885-0.27,2.594-0.809c0.709-0.538,1.224-1.252,1.545-2.14
	L29.227,96.649L29.227,96.649z"/>
<path d="M52.787,89.775c0.784-0.936,1.176-2.083,1.176-3.444c0-0.794-0.146-1.521-0.439-2.183s-0.694-1.229-1.205-1.7
	c-0.511-0.473-1.115-0.842-1.814-1.105c-0.699-0.266-1.446-0.397-2.239-0.397h-8.051v19.729h2.495V92h4.451l3.77,8.674h2.778
	l-3.998-8.93C50.977,91.368,52.002,90.71,52.787,89.775z M42.709,89.817v-6.689h5.103c1.077,0,1.956,0.255,2.636,0.766
	c0.68,0.51,1.021,1.322,1.021,2.438c0,1.135-0.359,1.998-1.077,2.594s-1.616,0.893-2.693,0.893H42.709z"/>
<polygon points="65.603,100.674 65.603,80.945 78.075,80.945 78.075,83.241 68.097,83.241 68.097,89.62 76.601,89.62 76.601,91.801 
	68.097,91.801 68.097,98.378 78.075,98.378 78.075,100.674 65.603,100.674 "/>
<path d="M96.83,80.945h-2.154l-7.229,19.729h2.608l1.587-4.535h8.192l1.587,4.535h2.637L96.83,80.945z M92.351,94.012l1.956-5.654
	l1.389-4.097h0.085l1.445,4.21l1.899,5.541H92.351z"/>
<polygon points="119.667,83.127 119.667,100.674 117.172,100.674 117.172,83.127 111.559,83.127 111.559,80.945 125.279,80.945 
	125.279,83.127 119.667,83.127 "/>
<polygon points="135.898,100.674 135.898,80.945 138.392,80.945 138.392,100.674 135.898,100.674 "/>
<path d="M156.779,96.394c0.265-0.907,0.533-1.814,0.809-2.722c0.273-0.906,0.543-1.814,0.807-2.721l3.09-10.007h2.75l-6.548,19.729
	h-2.041l-6.548-19.729h2.721l3.146,10.063l1.673,5.414L156.779,96.394L156.779,96.394z"/>
<polygon points="174.996,100.674 174.996,80.945 187.468,80.945 187.468,83.241 177.49,83.241 177.49,89.62 185.994,89.62 
	185.994,91.801 177.49,91.801 177.49,98.378 187.468,98.378 187.468,100.674 174.996,100.674 "/>
<path d="M230.431,95.061c0,0.908-0.174,1.716-0.523,2.424c-0.351,0.709-0.838,1.314-1.461,1.814
	c-0.623,0.501-1.369,0.884-2.239,1.148c-0.87,0.264-1.823,0.396-2.862,0.396c-0.624,0-1.271-0.057-1.942-0.17
	s-1.342-0.283-2.013-0.51s-1.313-0.506-1.928-0.836c-0.614-0.332-1.176-0.724-1.687-1.178l1.587-2.012
	c0.795,0.756,1.711,1.332,2.75,1.729c1.039,0.397,2.154,0.596,3.346,0.596c0.623,0,1.204-0.066,1.742-0.198
	c0.539-0.132,1.002-0.336,1.39-0.61c0.388-0.273,0.694-0.628,0.921-1.063s0.34-0.954,0.34-1.559c0-0.567-0.122-1.03-0.367-1.39
	c-0.246-0.358-0.577-0.656-0.992-0.893c-0.416-0.236-0.898-0.431-1.446-0.581c-0.548-0.151-1.134-0.283-1.757-0.396
	c-0.775-0.152-1.541-0.317-2.297-0.496c-0.756-0.18-1.436-0.459-2.041-0.837s-1.096-0.894-1.475-1.545
	c-0.377-0.651-0.566-1.517-0.566-2.594c0-0.907,0.176-1.706,0.529-2.396c0.354-0.689,0.836-1.271,1.445-1.743
	s1.309-0.827,2.094-1.063c0.783-0.236,1.62-0.354,2.508-0.354c1.342,0,2.523,0.15,3.544,0.453s1.946,0.785,2.778,1.445l-1.39,2.127
	c-0.718-0.492-1.487-0.879-2.31-1.162c-0.822-0.284-1.697-0.426-2.623-0.426c-1.322,0-2.334,0.273-3.033,0.822
	c-0.699,0.548-1.049,1.313-1.049,2.296c0,0.511,0.119,0.94,0.354,1.29c0.237,0.35,0.591,0.646,1.059,0.893
	c0.473,0.246,1.054,0.459,1.739,0.639c0.689,0.179,1.479,0.354,2.361,0.523c0.624,0.133,1.257,0.293,1.909,0.482
	c0.651,0.189,1.243,0.477,1.78,0.864c0.539,0.388,0.975,0.902,1.314,1.545S230.431,94.022,230.431,95.061L230.431,95.061z"/>
<polygon points="247.712,83.127 247.712,100.674 245.218,100.674 245.218,83.127 239.605,83.127 239.605,80.945 253.325,80.945 
	253.325,83.127 247.712,83.127 "/>
<path d="M277.579,80.945v12.586c0,1.115-0.165,2.126-0.495,3.033c-0.332,0.907-0.805,1.677-1.418,2.311
	c-0.615,0.633-1.352,1.12-2.211,1.46c-0.86,0.34-1.828,0.51-2.906,0.51c-1.172,0-2.197-0.198-3.076-0.596
	c-0.878-0.396-1.61-0.926-2.196-1.587c-0.585-0.661-1.021-1.437-1.304-2.324s-0.426-1.823-0.426-2.807V80.945h2.494v12.388
	c0,0.662,0.096,1.299,0.284,1.913s0.472,1.157,0.847,1.63c0.377,0.473,0.85,0.855,1.412,1.148c0.566,0.293,1.237,0.439,2.008,0.439
	c1.394,0,2.49-0.439,3.293-1.318c0.799-0.879,1.199-2.149,1.199-3.813V80.945H277.579L277.579,80.945z"/>
<path d="M303.732,87.153c-0.076-0.982-0.293-1.833-0.652-2.551c-0.623-1.305-1.531-2.24-2.721-2.807
	c-1.191-0.567-2.523-0.851-3.997-0.851h-6.464v19.729h5.982c0.793,0,1.559-0.066,2.295-0.198c0.738-0.132,1.418-0.35,2.041-0.652
	c0.624-0.302,1.187-0.704,1.688-1.204c0.5-0.502,0.912-1.12,1.232-1.857c0.322-0.775,0.52-1.672,0.596-2.693
	c0.076-1.02,0.113-2.22,0.113-3.6C303.845,89.241,303.808,88.135,303.732,87.153z M301.351,92.766c0,0.85-0.09,1.62-0.27,2.31
	c-0.18,0.69-0.473,1.28-0.879,1.772c-0.406,0.49-0.936,0.869-1.588,1.133c-0.651,0.266-1.44,0.397-2.367,0.397h-3.855V83.241h3.855
	c0.757,0,1.446,0.094,2.07,0.283c0.623,0.189,1.162,0.51,1.615,0.964s0.804,1.049,1.049,1.786c0.246,0.737,0.369,1.645,0.369,2.721
	V92.766z"/>
<polygon points="315.853,100.674 315.853,80.945 318.347,80.945 318.347,100.674 315.853,100.674 "/>
<path d="M343.935,85.182c-0.322-0.896-0.789-1.668-1.404-2.311c-0.613-0.643-1.355-1.147-2.225-1.516
	c-0.869-0.369-1.843-0.553-2.92-0.553c-1.172,0-2.197,0.198-3.076,0.596c-0.879,0.396-1.611,0.93-2.197,1.602
	c-0.585,0.67-1.02,1.445-1.303,2.324c-0.284,0.879-0.426,1.8-0.426,2.764v5.442c0,0.983,0.142,1.919,0.426,2.807
	c0.283,0.888,0.718,1.663,1.303,2.324c0.586,0.661,1.318,1.19,2.197,1.587c0.879,0.397,1.904,0.596,3.076,0.596
	c1.077,0,2.045-0.17,2.905-0.51s1.597-0.827,2.212-1.46c0.613-0.634,1.086-1.403,1.416-2.311c0.332-0.907,0.496-1.918,0.496-3.033
	v-5.442C344.416,87.049,344.255,86.081,343.935,85.182z M341.921,93.409c0,0.736-0.104,1.422-0.312,2.045
	c-0.208,0.624-0.501,1.162-0.888,1.615c-0.389,0.459-0.861,0.818-1.414,1.082c-0.557,0.266-1.18,0.397-1.879,0.397
	c-0.771,0-1.441-0.146-2.008-0.439c-0.563-0.293-1.035-0.676-1.414-1.153c-0.373-0.473-0.656-1.016-0.846-1.629
	c-0.188-0.615-0.283-1.258-0.283-1.918v-5.254c0-0.624,0.096-1.242,0.283-1.848c0.189-0.605,0.473-1.139,0.846-1.602
	c0.379-0.468,0.852-0.842,1.414-1.125c0.566-0.283,1.236-0.425,2.008-0.425c0.699,0,1.322,0.132,1.879,0.397
	c0.553,0.264,1.025,0.623,1.414,1.082c0.387,0.453,0.68,0.982,0.888,1.587s0.312,1.252,0.312,1.933V93.409z"/>
<polygon points="174.561,39.046 169.695,39.046 169.695,0.553 174.561,0.553 174.561,39.046 "/>
<path d="M164.44,26.658c-0.036,1.917-0.073,3.134-0.11,3.65c-0.111,1.401-0.276,2.618-0.498,3.65
	c-0.811,3.355-3.061,5.586-6.747,6.692c-2.065,0.626-5.457,0.94-10.177,0.94h-10.342c-6.453,0-11.016-0.691-13.688-2.074
	c-2.673-1.382-4.378-3.807-5.116-7.272c-0.516-2.323-0.774-6.969-0.774-13.937c0-5.015,0.479-8.684,1.438-11.006
	c1.401-3.54,4.186-5.697,8.352-6.471c2.654-0.479,5.862-0.756,9.623-0.83c-0.479,0,2.766,0,9.734,0
	c4.424,0,7.834,0.369,10.231,1.106c3.835,1.143,6.194,3.318,7.079,6.526c0.295,1.143,0.461,3.466,0.498,6.969l-4.813,0.055
	c0.037-1.549-0.073-3.503-0.332-5.863c-0.59-1.806-2.488-2.986-5.695-3.54c-1.586-0.295-4.057-0.442-7.412-0.442
	c-7.484,0-10.525,0-9.125,0c-3.576,0.037-6.591,0.295-9.043,0.774c-2.451,0.479-4.01,1.724-4.674,3.733
	c-0.663,2.009-0.994,6.019-0.994,12.029c0,5.125,0.221,8.536,0.663,10.232c0.59,2.175,1.899,3.595,3.927,4.259
	c1.807,0.626,5.18,0.94,10.121,0.94c-0.332,0,1.678,0.019,6.028,0.055c2.802,0.037,5.125,0.019,6.968-0.055
	c2.545-0.111,4.535-0.35,5.975-0.719c1.916-0.479,3.096-1.548,3.539-3.208c0.258-0.885,0.442-3.005,0.553-6.36L164.44,26.658
	L164.44,26.658z"/>
<polygon points="111.457,39.046 106.59,39.046 106.59,0.166 111.457,0.166 111.457,39.046 "/>
<path d="M100.174,39.046H66.438c-1.585,0-2.378-0.812-2.378-2.434V2.544h4.867v31.691h31.248V39.046L100.174,39.046z"/>
<path d="M59.579,26.658c-0.037,1.917-0.073,3.134-0.11,3.65c-0.111,1.401-0.276,2.618-0.498,3.65
	c-0.811,3.355-3.06,5.586-6.747,6.692c-2.065,0.626-5.457,0.94-10.176,0.94H31.705c-6.453,0-11.016-0.691-13.688-2.074
	c-2.673-1.382-4.378-3.807-5.116-7.272c-0.516-2.323-0.774-6.969-0.774-13.937c0-5.015,0.479-8.684,1.438-11.006
	c1.401-3.54,4.185-5.697,8.351-6.471C24.57,0.35,27.778,0.074,31.539,0c-0.479,0,2.766,0,9.733,0c4.425,0,7.836,0.369,10.232,1.106
	c3.834,1.143,6.194,3.318,7.079,6.526c0.295,1.143,0.46,3.466,0.498,6.969l-4.812,0.055c0.037-1.549-0.074-3.503-0.332-5.863
	c-0.59-1.806-2.489-2.986-5.697-3.54c-1.585-0.295-4.056-0.442-7.411-0.442c-7.485,0-10.527,0-9.125,0
	c-3.577,0.037-6.591,0.295-9.043,0.774s-4.01,1.724-4.673,3.733c-0.664,2.009-0.996,6.019-0.996,12.029
	c0,5.125,0.221,8.536,0.664,10.232c0.59,2.175,1.899,3.595,3.927,4.259c1.807,0.626,5.18,0.94,10.121,0.94
	c-0.332,0,1.678,0.019,6.028,0.055c2.802,0.037,5.125,0.019,6.969-0.055c2.544-0.111,4.535-0.35,5.973-0.719
	c1.917-0.479,3.098-1.548,3.54-3.208c0.258-0.885,0.442-3.005,0.553-6.36L59.579,26.658L59.579,26.658z"/>
<polygon points="326.724,40.208 321.857,40.208 321.857,9.789 326.724,9.789 326.724,40.208 "/>
<path d="M209.199,0.166l-22.895,19.942l22.879,20.099l-28.594-17.864c-0.928-0.58-1.383-1.253-1.383-1.991
	c0-0.737,0.46-1.404,1.383-1.991L209.199,0.166L209.199,0.166z"/>
<polygon points="243.648,25.57 232.303,25.57 235.96,20.759 240.994,20.759 243.648,25.57 "/>
<path d="M209.199,0.166h25.369h3.9h3.898c0.922,0,1.604,0.405,2.047,1.217l22.101,38.825h-5.62l-19.975-35.23h-4.959l-26.777,35.23
	l21.885-36.441L209.199,0.166L209.199,0.166z"/>
<path d="M261.728,30.545V2.544c0-1.585,0.811-2.378,2.434-2.378h19.561h16.335c0,0,2.532,0.501,3.75,1.621
	c1.541,1.417,2.688,3.19,2.688,3.19c1.348,2.131,2.021,5.062,2.021,8.794c0,4.756-0.977,7.964-2.932,9.623
	c1.549,1.622,2.324,4.443,2.324,8.462v8.351h-4.867c0-0.7,0-3.079,0-4.812c0-1.622,0-2.839,0-3.65c0-1.586-0.111-2.784-0.322-3.595
	c-0.365-1.203-1.367-2.063-3.035-2.581h-25.402l-2.654-4.812h28.385c0.447-0.177,0.891-0.349,1.333-0.517
	c1.06-0.479,1.742-1.272,2.028-2.378c0.184-0.737,0.275-2.046,0.275-3.926c0-2.618-0.258-4.48-0.773-5.586
	c-0.738-1.586-2.24-2.582-4.518-2.987c-1.705-0.254-4.35-0.383-7.939-0.387h-6.697h-17.127v35.23h-4.867V30.545z"/>
<polygon points="300.348,0.166 288.879,0.166 344.417,0.166 339.384,4.978 305.348,4.978 "/>
<g>
	<polygon fill="#007D57" points="186.15,20.204 209.199,0.166 231.068,3.766 209.183,40.208 	"/>
	<polygon fill="#009D76" points="186.15,20.204 214.564,9.806 209.183,40.208 	"/>
	<polygon fill="#00835E" points="186.15,20.204 209.199,0.166 231.068,3.766 	"/>
	<polygon fill="#009D76" points="186.15,20.204 209.199,0.166 211.783,3.65 	"/>
	<polygon fill="#0F7655" points="211.783,3.65 209.199,0.166 231.068,3.766 	"/>
</g>
</svg>
