<?xml version="1.0" encoding="utf-8"?>
<svg version="1.1" id="Шар_1" xmlns="http://www.w3.org/2000/svg" xmlns:xlink="http://www.w3.org/1999/xlink" x="0px" y="0px"
	 viewBox="0 0 356.5 100.8" enable-background="new 0 0 356.5 100.8" xml:space="preserve">
<polygon fill="#009D76" points="356.5,58.8 0,58.8 0,61.2 356.5,61.2 "/>
<path d="M29.2,96.6c-0.5,1.3-1.3,2.4-2.4,3.1c-1.1,0.7-2.5,1.1-4.1,1.1c-1.2,0-2.2-0.2-3.1-0.6c-0.9-0.4-1.6-0.9-2.2-1.6
	c-0.6-0.7-1-1.4-1.3-2.3c-0.3-0.9-0.4-1.8-0.4-2.8v-5.4c0-1,0.1-1.9,0.4-2.8s0.7-1.7,1.3-2.3c0.6-0.7,1.3-1.2,2.2-1.6
	c0.9-0.4,1.9-0.6,3.1-0.6c1.6,0,3,0.4,4.1,1.1c1.1,0.8,1.9,1.8,2.4,3l-2.3,1c-0.3-0.8-0.8-1.5-1.5-2c-0.7-0.5-1.6-0.8-2.6-0.8
	c-0.8,0-1.4,0.1-2,0.4s-1,0.7-1.4,1.1c-0.4,0.5-0.7,1-0.9,1.6s-0.3,1.2-0.3,1.8v5.1c0,0.7,0.1,1.3,0.3,1.9s0.5,1.2,0.9,1.6
	s0.9,0.9,1.4,1.1s1.2,0.4,2,0.4c1,0,1.9-0.3,2.6-0.8c0.7-0.5,1.2-1.3,1.5-2.1L29.2,96.6L29.2,96.6z"/>
<path d="M52.8,89.8c0.8-0.9,1.2-2.1,1.2-3.4c0-0.8-0.1-1.5-0.4-2.2s-0.7-1.2-1.2-1.7c-0.5-0.5-1.1-0.8-1.8-1.1
	c-0.7-0.3-1.4-0.4-2.2-0.4h-8.1v19.7h2.5V92h4.5l3.8,8.7h2.8l-4-8.9C51,91.4,52,90.7,52.8,89.8z M42.7,89.8v-6.7h5.1
	c1.1,0,2,0.3,2.6,0.8c0.7,0.5,1,1.3,1,2.4c0,1.1-0.4,2-1.1,2.6s-1.6,0.9-2.7,0.9L42.7,89.8L42.7,89.8z"/>
<polygon points="65.6,100.7 65.6,80.9 78.1,80.9 78.1,83.2 68.1,83.2 68.1,89.6 76.6,89.6 76.6,91.8 68.1,91.8 68.1,98.4 78.1,98.4 
	78.1,100.7 "/>
<path d="M96.8,80.9h-2.2l-7.2,19.7h2.6l1.6-4.5h8.2l1.6,4.5h2.6L96.8,80.9z M92.4,94l2-5.7l1.4-4.1h0.1l1.4,4.2l1.9,5.5H92.4z"/>
<polygon points="119.7,83.1 119.7,100.7 117.2,100.7 117.2,83.1 111.6,83.1 111.6,80.9 125.3,80.9 125.3,83.1 "/>
<polygon points="135.9,100.7 135.9,80.9 138.4,80.9 138.4,100.7 "/>
<path d="M156.8,96.4c0.3-0.9,0.5-1.8,0.8-2.7c0.3-0.9,0.5-1.8,0.8-2.7l3.1-10h2.8l-6.5,19.7h-2l-6.5-19.7h2.7L155,91l1.7,5.4
	L156.8,96.4L156.8,96.4z"/>
<polygon points="175,100.7 175,80.9 187.5,80.9 187.5,83.2 177.5,83.2 177.5,89.6 186,89.6 186,91.8 177.5,91.8 177.5,98.4 
	187.5,98.4 187.5,100.7 "/>
<path d="M230.4,95.1c0,0.9-0.2,1.7-0.5,2.4c-0.4,0.7-0.8,1.3-1.5,1.8c-0.6,0.5-1.4,0.9-2.2,1.1s-1.8,0.4-2.9,0.4
	c-0.6,0-1.3-0.1-1.9-0.2s-1.3-0.3-2-0.5s-1.3-0.5-1.9-0.8c-0.6-0.3-1.2-0.7-1.7-1.2l1.6-2c0.8,0.8,1.7,1.3,2.8,1.7
	c1,0.4,2.2,0.6,3.3,0.6c0.6,0,1.2-0.1,1.7-0.2c0.5-0.1,1-0.3,1.4-0.6c0.4-0.3,0.7-0.6,0.9-1.1s0.3-1,0.3-1.6c0-0.6-0.1-1-0.4-1.4
	c-0.2-0.4-0.6-0.7-1-0.9c-0.4-0.2-0.9-0.4-1.4-0.6c-0.5-0.2-1.1-0.3-1.8-0.4c-0.8-0.2-1.5-0.3-2.3-0.5c-0.8-0.2-1.4-0.5-2-0.8
	s-1.1-0.9-1.5-1.5c-0.4-0.7-0.6-1.5-0.6-2.6c0-0.9,0.2-1.7,0.5-2.4c0.4-0.7,0.8-1.3,1.4-1.7s1.3-0.8,2.1-1.1
	c0.8-0.2,1.6-0.4,2.5-0.4c1.3,0,2.5,0.2,3.5,0.5s1.9,0.8,2.8,1.4l-1.4,2.1c-0.7-0.5-1.5-0.9-2.3-1.2c-0.8-0.3-1.7-0.4-2.6-0.4
	c-1.3,0-2.3,0.3-3,0.8c-0.7,0.5-1,1.3-1,2.3c0,0.5,0.1,0.9,0.4,1.3c0.2,0.3,0.6,0.6,1.1,0.9c0.5,0.2,1.1,0.5,1.7,0.6
	c0.7,0.2,1.5,0.4,2.4,0.5c0.6,0.1,1.3,0.3,1.9,0.5c0.7,0.2,1.2,0.5,1.8,0.9c0.5,0.4,1,0.9,1.3,1.5S230.4,94,230.4,95.1L230.4,95.1z"
	/>
<polygon points="247.7,83.1 247.7,100.7 245.2,100.7 245.2,83.1 239.6,83.1 239.6,80.9 253.3,80.9 253.3,83.1 "/>
<path d="M277.6,80.9v12.6c0,1.1-0.2,2.1-0.5,3c-0.3,0.9-0.8,1.7-1.4,2.3c-0.6,0.6-1.4,1.1-2.2,1.5c-0.9,0.3-1.8,0.5-2.9,0.5
	c-1.2,0-2.2-0.2-3.1-0.6c-0.9-0.4-1.6-0.9-2.2-1.6c-0.6-0.7-1-1.4-1.3-2.3s-0.4-1.8-0.4-2.8V80.9h2.5v12.4c0,0.7,0.1,1.3,0.3,1.9
	s0.5,1.2,0.8,1.6c0.4,0.5,0.9,0.9,1.4,1.1c0.6,0.3,1.2,0.4,2,0.4c1.4,0,2.5-0.4,3.3-1.3c0.8-0.9,1.2-2.1,1.2-3.8V80.9H277.6
	L277.6,80.9z"/>
<path d="M303.7,87.2c-0.1-1-0.3-1.8-0.7-2.6c-0.6-1.3-1.5-2.2-2.7-2.8c-1.2-0.6-2.5-0.9-4-0.9h-6.5v19.7h6c0.8,0,1.6-0.1,2.3-0.2
	c0.7-0.1,1.4-0.3,2-0.7c0.6-0.3,1.2-0.7,1.7-1.2c0.5-0.5,0.9-1.1,1.2-1.9c0.3-0.8,0.5-1.7,0.6-2.7c0.1-1,0.1-2.2,0.1-3.6
	C303.8,89.2,303.8,88.1,303.7,87.2z M301.4,92.8c0,0.8-0.1,1.6-0.3,2.3c-0.2,0.7-0.5,1.3-0.9,1.8c-0.4,0.5-0.9,0.9-1.6,1.1
	c-0.7,0.3-1.4,0.4-2.4,0.4h-3.9V83.2h3.9c0.8,0,1.4,0.1,2.1,0.3c0.6,0.2,1.2,0.5,1.6,1s0.8,1,1,1.8c0.2,0.7,0.4,1.6,0.4,2.7
	L301.4,92.8L301.4,92.8z"/>
<polygon points="315.9,100.7 315.9,80.9 318.3,80.9 318.3,100.7 "/>
<path d="M343.9,85.2c-0.3-0.9-0.8-1.7-1.4-2.3c-0.6-0.6-1.4-1.1-2.2-1.5c-0.9-0.4-1.8-0.6-2.9-0.6c-1.2,0-2.2,0.2-3.1,0.6
	c-0.9,0.4-1.6,0.9-2.2,1.6c-0.6,0.7-1,1.4-1.3,2.3c-0.3,0.9-0.4,1.8-0.4,2.8v5.4c0,1,0.1,1.9,0.4,2.8c0.3,0.9,0.7,1.7,1.3,2.3
	c0.6,0.7,1.3,1.2,2.2,1.6c0.9,0.4,1.9,0.6,3.1,0.6c1.1,0,2-0.2,2.9-0.5s1.6-0.8,2.2-1.5c0.6-0.6,1.1-1.4,1.4-2.3
	c0.3-0.9,0.5-1.9,0.5-3v-5.4C344.4,87,344.3,86.1,343.9,85.2z M341.9,93.4c0,0.7-0.1,1.4-0.3,2c-0.2,0.6-0.5,1.2-0.9,1.6
	c-0.4,0.5-0.9,0.8-1.4,1.1c-0.6,0.3-1.2,0.4-1.9,0.4c-0.8,0-1.4-0.1-2-0.4c-0.6-0.3-1-0.7-1.4-1.2c-0.4-0.5-0.7-1-0.8-1.6
	c-0.2-0.6-0.3-1.3-0.3-1.9v-5.3c0-0.6,0.1-1.2,0.3-1.8c0.2-0.6,0.5-1.1,0.8-1.6c0.4-0.5,0.9-0.8,1.4-1.1c0.6-0.3,1.2-0.4,2-0.4
	c0.7,0,1.3,0.1,1.9,0.4c0.6,0.3,1,0.6,1.4,1.1c0.4,0.5,0.7,1,0.9,1.6s0.3,1.3,0.3,1.9V93.4z"/>
<polygon points="174.6,39 169.7,39 169.7,0.6 174.6,0.6 "/>
<path d="M164.4,26.7c0,1.9-0.1,3.1-0.1,3.6c-0.1,1.4-0.3,2.6-0.5,3.6c-0.8,3.4-3.1,5.6-6.7,6.7c-2.1,0.6-5.5,0.9-10.2,0.9h-10.3
	c-6.5,0-11-0.7-13.7-2.1c-2.7-1.4-4.4-3.8-5.1-7.3c-0.5-2.3-0.8-7-0.8-13.9c0-5,0.5-8.7,1.4-11c1.4-3.5,4.2-5.7,8.4-6.5
	c2.7-0.5,5.9-0.8,9.6-0.8c-0.5,0,2.8,0,9.7,0c4.4,0,7.8,0.4,10.2,1.1c3.8,1.1,6.2,3.3,7.1,6.5c0.3,1.1,0.5,3.5,0.5,7l-4.8,0.1
	c0-1.5-0.1-3.5-0.3-5.9c-0.6-1.8-2.5-3-5.7-3.5c-1.6-0.3-4.1-0.4-7.4-0.4c-7.5,0-10.5,0-9.1,0c-3.6,0-6.6,0.3-9,0.8
	c-2.5,0.5-4,1.7-4.7,3.7c-0.7,2-1,6-1,12c0,5.1,0.2,8.5,0.7,10.2c0.6,2.2,1.9,3.6,3.9,4.3c1.8,0.6,5.2,0.9,10.1,0.9
	c-0.3,0,1.7,0,6,0.1c2.8,0,5.1,0,7-0.1c2.5-0.1,4.5-0.3,6-0.7c1.9-0.5,3.1-1.5,3.5-3.2c0.3-0.9,0.4-3,0.6-6.4L164.4,26.7L164.4,26.7
	z"/>
<polygon points="111.5,39 106.6,39 106.6,0.2 111.5,0.2 "/>
<path d="M100.2,39H66.4c-1.6,0-2.4-0.8-2.4-2.4V2.5h4.9v31.7h31.2L100.2,39L100.2,39z"/>
<path d="M59.6,26.7c0,1.9-0.1,3.1-0.1,3.6c-0.1,1.4-0.3,2.6-0.5,3.6c-0.8,3.4-3.1,5.6-6.7,6.7c-2.1,0.6-5.5,0.9-10.2,0.9H31.7
	c-6.5,0-11-0.7-13.7-2.1c-2.7-1.4-4.4-3.8-5.1-7.3c-0.5-2.3-0.8-7-0.8-13.9c0-5,0.5-8.7,1.4-11c1.4-3.5,4.2-5.7,8.4-6.5
	c2.7-0.5,5.9-0.8,9.6-0.8c-0.5,0,2.8,0,9.7,0c4.4,0,7.8,0.4,10.2,1.1c3.8,1.1,6.2,3.3,7.1,6.5c0.3,1.1,0.5,3.5,0.5,7l-4.8,0.1
	c0-1.5-0.1-3.5-0.3-5.9c-0.6-1.8-2.5-3-5.7-3.5c-1.6-0.3-4.1-0.4-7.4-0.4c-7.5,0-10.5,0-9.1,0c-3.6,0-6.6,0.3-9,0.8s-4,1.7-4.7,3.7
	c-0.7,2-1,6-1,12c0,5.1,0.2,8.5,0.7,10.2c0.6,2.2,1.9,3.6,3.9,4.3c1.8,0.6,5.2,0.9,10.1,0.9c-0.3,0,1.7,0,6,0.1c2.8,0,5.1,0,7-0.1
	c2.5-0.1,4.5-0.3,6-0.7c1.9-0.5,3.1-1.5,3.5-3.2c0.3-0.9,0.4-3,0.6-6.4L59.6,26.7L59.6,26.7z"/>
<polygon points="326.7,40.2 321.9,40.2 321.9,9.8 326.7,9.8 "/>
<path d="M209.2,0.2l-22.9,19.9l22.9,20.1l-28.6-17.9c-0.9-0.6-1.4-1.3-1.4-2c0-0.7,0.5-1.4,1.4-2L209.2,0.2L209.2,0.2z"/>
<polygon points="243.6,25.6 232.3,25.6 236,20.8 241,20.8 "/>
<path d="M209.2,0.2h25.4h3.9h3.9c0.9,0,1.6,0.4,2,1.2l22.1,38.8h-5.6L240.9,5h-5l-26.8,35.2l21.9-36.4L209.2,0.2L209.2,0.2z"/>
<path d="M261.7,30.5v-28c0-1.6,0.8-2.4,2.4-2.4h19.6h16.3c0,0,2.5,0.5,3.8,1.6c1.5,1.4,2.7,3.2,2.7,3.2c1.3,2.1,2,5.1,2,8.8
	c0,4.8-1,8-2.9,9.6c1.5,1.6,2.3,4.4,2.3,8.5v8.4H303c0-0.7,0-3.1,0-4.8c0-1.6,0-2.8,0-3.6c0-1.6-0.1-2.8-0.3-3.6
	c-0.4-1.2-1.4-2.1-3-2.6h-25.4l-2.7-4.8H300c0.4-0.2,0.9-0.3,1.3-0.5c1.1-0.5,1.7-1.3,2-2.4c0.2-0.7,0.3-2,0.3-3.9
	c0-2.6-0.3-4.5-0.8-5.6c-0.7-1.6-2.2-2.6-4.5-3C296.7,5.1,294,5,290.4,5h-6.7h-17.1v35.2h-4.9L261.7,30.5L261.7,30.5z"/>
<polygon points="300.3,0.2 288.9,0.2 344.4,0.2 339.4,5 305.3,5 "/>
<g>
	<polygon fill="#007D57" points="186.1,20.2 209.2,0.2 231.1,3.8 209.2,40.2 	"/>
	<polygon fill="#009D76" points="186.1,20.2 214.6,9.8 209.2,40.2 	"/>
	<polygon fill="#00835E" points="186.1,20.2 209.2,0.2 231.1,3.8 	"/>
	<polygon fill="#009D76" points="186.1,20.2 209.2,0.2 211.8,3.7 	"/>
	<polygon fill="#0F7655" points="211.8,3.7 209.2,0.2 231.1,3.8 	"/>
</g>
</svg>
